<svg width="247" height="42" viewBox="0 0 247 42" fill="none" xmlns="http://www.w3.org/2000/svg">
<path d="M41.7045 13.656L33.2798 40.7089H25.7971L20.7737 22.9702L15.8027 40.7089H8.37229L0 13.656H7.74437L12.4538 30.1913L17.1632 13.656H24.5413L29.2507 30.2436L33.9078 13.656H41.7045Z" fill="white"/>
<path d="M53.0831 13.656V40.7089H45.4434V13.656H53.0831ZM46.1236 2.77202C46.9608 1.93479 47.9899 1.51617 49.2109 1.51617C50.4319 1.51617 51.4609 1.93479 52.2982 2.77202C53.1703 3.60925 53.6063 4.6209 53.6063 5.80697C53.6063 7.02793 53.1703 8.05702 52.2982 8.89425C51.4609 9.73148 50.4319 10.1501 49.2109 10.1501C47.9899 10.1501 46.9608 9.73148 46.1236 8.89425C45.2864 8.05702 44.8678 7.02793 44.8678 5.80697C44.8678 4.58601 45.2864 3.57436 46.1236 2.77202Z" fill="white"/>
<path d="M67.3401 2.66736V40.7089H59.7004V2.66736H67.3401Z" fill="white"/>
<path d="M162.628 29.354H144.366V29.4587C144.366 31.1331 144.924 32.5285 146.041 33.6448C147.192 34.7611 148.675 35.3193 150.489 35.3193C151.675 35.3193 152.669 35.0751 153.471 34.5867C154.274 34.0983 154.779 33.5576 154.989 32.9646H162.367C161.948 35.1623 160.71 37.1158 158.652 38.8252C156.628 40.4996 153.855 41.3369 150.332 41.3369C146.18 41.3369 142.866 40.0985 140.39 37.6217C137.913 35.11 136.674 31.6738 136.674 27.3133C136.674 22.9527 137.878 19.4817 140.285 16.9003C142.727 14.3188 145.936 13.0281 149.913 13.0281C153.785 13.0281 156.872 14.2665 159.175 16.7433C161.477 19.2201 162.628 22.5515 162.628 26.7377V29.354ZM149.965 18.9933C148.43 18.9933 147.175 19.4468 146.198 20.3538C145.221 21.2259 144.628 22.4469 144.419 24.0167H155.198C155.093 22.4818 154.57 21.2608 153.628 20.3538C152.686 19.4468 151.465 18.9933 149.965 18.9933Z" fill="white"/>
<path d="M182.952 13.5513H184.313V20.7724H182.534C180.266 20.7724 178.505 21.3306 177.249 22.4469C176.028 23.5283 175.417 25.0458 175.417 26.9993V40.7089H167.778V13.656H175.103V17.8945C176.708 14.999 179.324 13.5513 182.952 13.5513Z" fill="white"/>
<path d="M204.108 13.5513H205.469V20.7724H203.689C201.422 20.7724 199.66 21.3306 198.404 22.4469C197.183 23.5283 196.573 25.0458 196.573 26.9993V40.7089H188.933V13.656H196.259V17.8945C197.864 14.999 200.48 13.5513 204.108 13.5513Z" fill="white"/>
<path d="M217.728 13.656V40.7089H210.089V13.656H217.728ZM210.769 2.77202C211.606 1.93479 212.635 1.51617 213.856 1.51617C215.077 1.51617 216.106 1.93479 216.944 2.77202C217.816 3.60925 218.252 4.6209 218.252 5.80697C218.252 7.02793 217.816 8.05702 216.944 8.89425C216.106 9.73148 215.077 10.1501 213.856 10.1501C212.635 10.1501 211.606 9.73148 210.769 8.89425C209.932 8.05702 209.513 7.02793 209.513 5.80697C209.513 4.58601 209.932 3.57436 210.769 2.77202Z" fill="white"/>
<path d="M230.311 32.7029C230.73 34.6216 232.299 35.5809 235.02 35.5809C236.276 35.5809 237.253 35.3367 237.951 34.8483C238.648 34.3251 238.997 33.6448 238.997 32.8076C238.997 31.5518 238.003 30.7843 236.015 30.5052L231.41 29.9819C225.968 29.3191 223.247 26.6679 223.247 22.0283C223.247 19.3771 224.311 17.2142 226.439 15.5398C228.567 13.8653 231.27 13.0281 234.55 13.0281C237.724 13.0281 240.323 13.7781 242.346 15.2781C244.404 16.7782 245.608 18.8538 245.957 21.505H238.579C238.055 19.7259 236.643 18.8363 234.34 18.8363C233.224 18.8363 232.317 19.098 231.619 19.6212C230.956 20.1096 230.625 20.7201 230.625 21.4527C230.625 22.7434 231.567 23.4934 233.451 23.7027L238.265 24.2783C240.776 24.5923 242.765 25.4121 244.23 26.7377C245.695 28.0633 246.428 29.9296 246.428 32.3367C246.428 35.1623 245.364 37.3775 243.236 38.9822C241.108 40.552 238.369 41.3369 235.02 41.3369C231.741 41.3369 228.968 40.6043 226.701 39.1391C224.433 37.674 223.16 35.5286 222.881 32.7029H230.311Z" fill="white"/>
<path d="M100.912 28.6493C100.912 35.7612 95.0553 41.5266 87.8305 41.5266C80.6057 41.5266 74.7488 35.7612 74.7488 28.6493C74.7488 21.5373 80.6057 15.772 87.8305 15.772C95.0553 15.772 100.912 21.5373 100.912 28.6493ZM80.804 28.6493C80.804 32.4693 83.9499 35.566 87.8305 35.566C91.7111 35.566 94.857 32.4693 94.857 28.6493C94.857 24.8293 91.7111 21.7326 87.8305 21.7326C83.9499 21.7326 80.804 24.8293 80.804 28.6493Z" fill="white"/>
<path d="M131.981 28.6493C131.981 35.7612 126.124 41.5266 118.9 41.5266C111.675 41.5266 105.818 35.7612 105.818 28.6493C105.818 21.5373 111.675 15.772 118.9 15.772C126.124 15.772 131.981 21.5373 131.981 28.6493ZM111.873 28.6493C111.873 32.4693 115.019 35.566 118.9 35.566C122.78 35.566 125.926 32.4693 125.926 28.6493C125.926 24.8293 122.78 21.7326 118.9 21.7326C115.019 21.7326 111.873 24.8293 111.873 28.6493Z" fill="white"/>
<rect x="105.818" y="2.69025" width="5.72324" height="26.5722" fill="white"/>
<path d="M81.148 2.75366L86.402 2.7575L99.0726 22.1084L95.5281 26.5291L81.148 2.75366Z" fill="white"/>
</svg>
